<svg width="64" height="64" viewBox="0 0 64 64" fill="none" xmlns="http://www.w3.org/2000/svg">
  <defs>
    <linearGradient id="bg" x1="8" y1="6" x2="56" y2="58" gradientUnits="userSpaceOnUse">
      <stop offset="0" stop-color="#081724"/>
      <stop offset="0.55" stop-color="#0B2740"/>
      <stop offset="1" stop-color="#0A1730"/>
    </linearGradient>
    <linearGradient id="beam" x1="16" y1="18" x2="49" y2="45" gradientUnits="userSpaceOnUse">
      <stop offset="0" stop-color="#37E6FF"/>
      <stop offset="0.52" stop-color="#18B9FF"/>
      <stop offset="1" stop-color="#5668FF"/>
    </linearGradient>
    <linearGradient id="beamSoft" x1="14" y1="20" x2="48" y2="46" gradientUnits="userSpaceOnUse">
      <stop offset="0" stop-color="#9BE7FF"/>
      <stop offset="1" stop-color="#75A5FF"/>
    </linearGradient>
    <filter id="glow" x="5" y="5" width="54" height="54" filterUnits="userSpaceOnUse" color-interpolation-filters="sRGB">
      <feGaussianBlur stdDeviation="4.5" result="blur"/>
      <feColorMatrix in="blur" type="matrix" values="1 0 0 0 0  0 0.92 0 0 0  0 0.98 1 0 0  0 0 0 0.36 0"/>
    </filter>
  </defs>

  <rect x="6" y="6" width="52" height="52" rx="18" fill="url(#bg)"/>
  <rect x="6.5" y="6.5" width="51" height="51" rx="17.5" stroke="rgba(134,211,255,0.16)"/>

  <path d="M18 20L27 14.5L36.5 20L36.2 31L27 36.7L17.8 31L18 20Z" fill="rgba(10,27,42,0.72)" stroke="rgba(150,225,255,0.2)"/>
  <path d="M28 26.2L41 18L46 21.2L33 29.5L28 26.2Z" fill="url(#beamSoft)" fill-opacity="0.85"/>
  <path d="M31.8 33.7L44.6 25.7L47.8 30.9L35 38.9L31.8 33.7Z" fill="url(#beam)"/>
  <path d="M23.2 39.8L36 31.8L39.2 37L26.4 45L23.2 39.8Z" fill="url(#beamSoft)"/>

  <path d="M22.3 21.8L27.1 18.9L31.9 21.8L31.7 27.4L27.1 30.2L22.5 27.4L22.3 21.8Z" fill="url(#beam)"/>
  <circle cx="27.1" cy="24.6" r="2.1" fill="#D8F8FF"/>

  <circle cx="17.5" cy="41.5" r="2.3" fill="#8BDAFF"/>
  <circle cx="45.7" cy="16.8" r="2.1" fill="#A6E9FF"/>
  <circle cx="49.2" cy="32.8" r="2.4" fill="#7FB0FF"/>
  <circle cx="28.1" cy="47.2" r="2.2" fill="#9ED9FF"/>

  <path d="M17.5 41.5L27.1 35.6" stroke="url(#beamSoft)" stroke-width="1.8" stroke-linecap="round"/>
  <path d="M31.8 22.8L45.7 16.8" stroke="url(#beamSoft)" stroke-width="1.8" stroke-linecap="round"/>
  <path d="M35.3 31.2L49.2 32.8" stroke="url(#beam)" stroke-width="1.8" stroke-linecap="round"/>
  <path d="M29.3 44.8L39 37.2" stroke="url(#beamSoft)" stroke-width="1.8" stroke-linecap="round"/>

  <g filter="url(#glow)">
    <path d="M29 25L44 17.8" stroke="#54D7FF" stroke-width="1.8" stroke-linecap="round"/>
    <path d="M35 32L48 33" stroke="#59C2FF" stroke-width="1.8" stroke-linecap="round"/>
  </g>
</svg>
