<svg width="920" height="220" viewBox="0 0 920 220" fill="none" xmlns="http://www.w3.org/2000/svg">
  <defs>
    <linearGradient id="iconBgW" x1="20" y1="16" x2="140" y2="144" gradientUnits="userSpaceOnUse">
      <stop offset="0" stop-color="#081724"/>
      <stop offset="0.55" stop-color="#0B2740"/>
      <stop offset="1" stop-color="#0A1730"/>
    </linearGradient>
    <linearGradient id="iconBeamW" x1="40" y1="44" x2="116" y2="116" gradientUnits="userSpaceOnUse">
      <stop offset="0" stop-color="#37E6FF"/>
      <stop offset="0.48" stop-color="#18B9FF"/>
      <stop offset="1" stop-color="#5668FF"/>
    </linearGradient>
    <linearGradient id="iconBeamSoftW" x1="38" y1="48" x2="112" y2="120" gradientUnits="userSpaceOnUse">
      <stop offset="0" stop-color="#9BE7FF"/>
      <stop offset="1" stop-color="#75A5FF"/>
    </linearGradient>
  </defs>

  <g transform="translate(18 24)">
    <rect x="0" y="0" width="148" height="148" rx="42" fill="url(#iconBgW)"/>
    <rect x="1" y="1" width="146" height="146" rx="41" stroke="rgba(174,226,255,0.18)"/>

    <path d="M33 40L58 24L84 39L83 69L58 85L33 68L33 40Z" fill="rgba(10,27,42,0.72)" stroke="rgba(150,225,255,0.22)"/>
    <path d="M61 56L97 34L109 42L73 64L61 56Z" fill="url(#iconBeamSoftW)" fill-opacity="0.88"/>
    <path d="M72 77L107 55L116 69L81 91L72 77Z" fill="url(#iconBeamW)"/>
    <path d="M48 93L83 71L92 85L57 107L48 93Z" fill="url(#iconBeamSoftW)"/>
    <path d="M45 46L58 38L71 46L70 61L58 69L46 61L45 46Z" fill="url(#iconBeamW)"/>
    <circle cx="58" cy="53.5" r="5.5" fill="#D8F8FF"/>
    <circle cx="31.5" cy="98.5" r="5.5" fill="#8BDAFF"/>
    <circle cx="108.5" cy="31.5" r="5" fill="#A6E9FF"/>
    <circle cx="119.5" cy="75.5" r="5.5" fill="#7FB0FF"/>
    <circle cx="62" cy="112" r="5" fill="#9ED9FF"/>
    <path d="M31.5 98.5L57 82" stroke="url(#iconBeamSoftW)" stroke-width="4" stroke-linecap="round"/>
    <path d="M70 49L108.5 31.5" stroke="url(#iconBeamSoftW)" stroke-width="4" stroke-linecap="round"/>
    <path d="M82 71L119.5 75.5" stroke="url(#iconBeamW)" stroke-width="4" stroke-linecap="round"/>
    <path d="M63 107L92 84" stroke="url(#iconBeamSoftW)" stroke-width="4" stroke-linecap="round"/>
  </g>

  <g transform="translate(206 52)">
    <text x="0" y="44" fill="#FFFFFF" font-family="Inter, 'PingFang SC', 'Microsoft YaHei', sans-serif" font-size="44" font-weight="700" letter-spacing="1">
      工业企业数字化知识库系统
    </text>
    <text x="2" y="88" fill="rgba(217,236,255,0.84)" font-family="Inter, 'PingFang SC', 'Microsoft YaHei', sans-serif" font-size="18" font-weight="600" letter-spacing="6">
      MATERIALS SCIENCE LAB · DIGITAL KNOWLEDGE ENGINE
    </text>
    <line x1="0" y1="108" x2="690" y2="108" stroke="rgba(255,255,255,0.16)" />
    <text x="0" y="146" fill="rgba(217,236,255,0.76)" font-family="Inter, 'PingFang SC', 'Microsoft YaHei', sans-serif" font-size="20" font-weight="400">
      聚焦实验文档、工艺知识、设备标准与工业企业数字化资产的统一检索与智能问答
    </text>
  </g>
</svg>
